<svg xmlns="http://www.w3.org/2000/svg" xmlns:xlink="http://www.w3.org/1999/xlink" width="1080" height="414.815" viewBox="0 0 1080 414.815">
  <defs>
    <linearGradient id="linear-gradient" x1="0.335" y1="0.284" x2="1.189" y2="0.808" gradientUnits="objectBoundingBox">
      <stop offset="0.173" stop-color="#17a6df"/>
      <stop offset="0.844" stop-color="#2758a1"/>
    </linearGradient>
    <linearGradient id="linear-gradient-2" x1="0.115" y1="0.211" x2="0.928" y2="0.808" gradientUnits="objectBoundingBox">
      <stop offset="0.145" stop-color="#2758a1"/>
      <stop offset="0.651" stop-color="#1c88c7"/>
      <stop offset="1" stop-color="#17a6df"/>
    </linearGradient>
    <linearGradient id="linear-gradient-3" y1="0.5" x2="1" y2="0.5" gradientUnits="objectBoundingBox">
      <stop offset="0" stop-color="#2758a1"/>
      <stop offset="1" stop-color="#17a6df"/>
    </linearGradient>
    <linearGradient id="linear-gradient-4" x1="-0.014" y1="0.334" x2="0.992" y2="0.334" xlink:href="#linear-gradient-3"/>
    <clipPath id="clip-hanelogo">
      <rect width="1080" height="414.815"/>
    </clipPath>
  </defs>
  <g id="hanelogo" clip-path="url(#clip-hanelogo)">
    <g id="Group_7" data-name="Group 7">
      <g id="Group_2" data-name="Group 2">
        <path id="Path_1" data-name="Path 1" d="M41.543,182.754v73.753l61.137-40.253Z" fill="#0e84c6"/>
        <path id="Path_2" data-name="Path 2" d="M199.5,276.544l5.3,84.9L41.543,256.188l61.137-39.934Z" fill="url(#linear-gradient)"/>
        <g id="Group_1" data-name="Group 1">
          <path id="Path_3" data-name="Path 3" d="M156.875,39.782l-3.107,71.262a.5.5,0,0,0,.232.443l99.259,62.77a.5.5,0,0,0,.515.011l54.567-31.436a.5.5,0,0,0,.032-.844l-150.72-102.6A.5.5,0,0,0,156.875,39.782Z" fill="url(#linear-gradient-2)"/>
          <path id="Path_4" data-name="Path 4" d="M303.792,201.968l4.782-59.417a.417.417,0,0,0-.58-.417l-62.281,26.725a.417.417,0,0,0-.042.746l57.5,32.693A.417.417,0,0,0,303.792,201.968Z" fill="#0e84c6"/>
        </g>
        <path id="Path_5" data-name="Path 5" d="M41.543,182.754l61.137,33.5,77.048-45.5-58.064-37.628Z" fill="url(#linear-gradient-3)"/>
        <path id="Path_6" data-name="Path 6" d="M303.49,202.41l-77.6,52.953a.536.536,0,0,1-.569.023L171.572,224.8a.538.538,0,0,1-.054-.9L246.1,168.777a.538.538,0,0,1,.587-.034l56.755,32.567A.649.649,0,0,1,303.49,202.41Z" fill="url(#linear-gradient-4)"/>
      </g>
      <g id="Group_4" data-name="Group 4" transform="translate(39 -37.101)">
        <g id="Group_3" data-name="Group 3">
          <path id="Path_7" data-name="Path 7" d="M482.211,110.065V256.508H456.169V191.236h-104.7v65.272H325.423V110.065h26.045v62.971h104.7V110.065Z" fill="#12100b"/>
          <path id="Path_8" data-name="Path 8" d="M640.219,219.9H543.335l-20.057,36.61H496.452l82.564-146.443H604.8l82.823,146.443H660.275ZM631.1,203.16,591.775,131.4,552.45,203.16Z" fill="#12100b"/>
          <path id="Path_9" data-name="Path 9" d="M859.993,110.065V256.508H838.638L729.25,147.3v109.2H703.205V110.065h21.358l109.388,109.2v-109.2Z" fill="#12100b"/>
          <path id="Path_10" data-name="Path 10" d="M1011.936,238.308v18.2H879.629V110.065h128.663v18.2H905.674v44.98h91.418v17.781H905.674v47.282Z" fill="#12100b"/>
        </g>
      </g>
      <g id="Group_6" data-name="Group 6" transform="translate(38.353 -31.225)">
        <g id="Group_5" data-name="Group 5">
          <path id="Path_11" data-name="Path 11" d="M370.513,348.321v27.345H363.7V348.321L326.07,296.237h7.476l33.763,46.749,33.768-46.749h7.07Z" fill="#12100b"/>
          <path id="Path_12" data-name="Path 12" d="M504.11,353.312H449.925L438.05,375.666h-7.342l42.977-79.429h6.8l42.977,79.429h-7.342Zm-2.533-4.879-24.56-45.843L452.6,348.433Z" fill="#12100b"/>
          <path id="Path_13" data-name="Path 13" d="M632.369,370.446v5.22H557.095v-4.084l64.465-70.125H557.9v-5.22H630.9v4.084L566.57,370.446Z" fill="#12100b"/>
          <path id="Path_14" data-name="Path 14" d="M680.016,296.237h6.8v79.429h-6.8Z" fill="#12100b"/>
          <path id="Path_15" data-name="Path 15" d="M746.081,296.237h6.8v74.209h53.791v5.22h-60.6Z" fill="#12100b"/>
          <path id="Path_16" data-name="Path 16" d="M850.847,296.237h6.8v79.429h-6.8Z" fill="#12100b"/>
          <path id="Path_17" data-name="Path 17" d="M1005.265,375.666l-.133-67.971-39.106,57.419h-3.338l-39.106-57.189v67.741h-6.67V296.237h5.737l41.778,61.388,41.771-61.388h5.6l.134,79.429Z" fill="#12100b"/>
        </g>
      </g>
    </g>
  </g>
</svg>
