<svg xmlns="http://www.w3.org/2000/svg" xmlns:xlink="http://www.w3.org/1999/xlink" width="512" height="512" viewBox="0 0 512 512">
  <defs>
    <clipPath id="clip-SPRK_default_preset_name_custom_1">
      <rect width="512" height="512"/>
    </clipPath>
  </defs>
  <g id="SPRK_default_preset_name_custom_1" data-name="SPRK_default_preset_name_custom – 1" clip-path="url(#clip-SPRK_default_preset_name_custom_1)">
    <circle id="Ellipse_1" data-name="Ellipse 1" cx="243" cy="243" r="243" transform="translate(13 26)" fill="#fff"/>
    <path id="github" d="M256,0C114.625,0,0,114.625,0,256,0,369.125,73.344,465.063,175.078,498.906c12.8,2.344,17.469-5.562,17.469-12.312,0-6.094-.234-26.281-.359-47.656C121,454.406,105.953,408.75,105.953,408.75,94.3,379.188,77.531,371.313,77.531,371.313,54.266,355.438,79.3,355.75,79.3,355.75c25.7,1.781,39.235,26.375,39.235,26.375,22.844,39.125,59.938,27.813,74.5,21.25,2.327-16.5,8.952-27.812,16.25-34.187C152.453,362.719,92.672,340.75,92.672,242.656c0-27.969,9.984-50.781,26.328-68.7-2.61-6.5-11.422-32.547,2.531-67.781,0,0,21.469-6.875,70.406,26.25a242.343,242.343,0,0,1,128.157.031c48.844-33.156,70.344-26.25,70.344-26.25,14,35.266,5.188,61.281,2.563,67.75,16.406,17.922,26.312,40.734,26.312,68.7,0,98.344-59.875,120-116.906,126.344,9.219,7.938,17.375,23.5,17.375,47.375,0,34.219-.344,61.813-.344,70.25,0,6.813,4.656,14.781,17.625,12.281C438.719,465,512,369.062,512,256,512,114.625,397.375,0,256,0Z"/>
  </g>
</svg>
