<svg xmlns="http://www.w3.org/2000/svg" xmlns:xlink="http://www.w3.org/1999/xlink" width="512" height="512" viewBox="0 0 512 512">
  <defs>
    <clipPath id="clip-SPRK_default_preset_name_custom_1">
      <rect width="512" height="512"/>
    </clipPath>
  </defs>
  <g id="SPRK_default_preset_name_custom_1" data-name="SPRK_default_preset_name_custom – 1" clip-path="url(#clip-SPRK_default_preset_name_custom_1)">
    <rect id="Rectangle_1" data-name="Rectangle 1" width="306" height="363" transform="translate(110 70)" fill="#fff"/>
    <path id="html5" d="M38.238,0a7.7,7.7,0,0,0-7.794,8.521L70.115,453.5a13.319,13.319,0,0,0,9,10.811l168.344,46.742a36.512,36.512,0,0,0,16.49,0l168.856-46.819a13.319,13.319,0,0,0,9.007-10.808L481.553,8.521A7.7,7.7,0,0,0,473.758,0Zm358.83,102.054c-.375,4.18-1.023,11.437-1.441,16.124l-1.045,11.675c-.421,4.685-1.02,11.386-1.336,14.889s-.614,6.371-.669,6.371H184.39a7.7,7.7,0,0,0-7.794,8.521l3.667,40.99a9.558,9.558,0,0,0,9.317,8.521h190.3a6.857,6.857,0,0,1,6.932,7.6c-.382,4.18-1.034,11.439-1.451,16.124L373.569,365.02c-.421,4.687-.953,10.674-1.182,13.306s-4.134,5.811-8.669,7.069l-99.474,27.582c-4.535,1.256-8.3,2.3-8.373,2.312s-3.836-1-8.373-2.26L147.918,385.4a13.315,13.315,0,0,1-9-10.809l-6.41-71.945a7.707,7.707,0,0,1,7.8-8.522h39.751a9.559,9.559,0,0,1,9.317,8.522l2.514,28.164a13.2,13.2,0,0,0,9.019,10.751l46.579,12.579c4.541,1.227,8.275,2.231,8.3,2.231s3.753-1.006,8.3-2.233l46.663-12.609a13.217,13.217,0,0,0,9.023-10.751l5.06-56.427a7.7,7.7,0,0,0-7.791-8.522H137.765a9.555,9.555,0,0,1-9.314-8.521L116.035,118.179c-.418-4.687-1.066-11.942-1.441-16.124s3.172-7.6,7.878-7.6H389.191C393.9,94.452,397.441,97.872,397.068,102.054Z" transform="translate(-0.41)" fill="#dd512a"/>
  </g>
</svg>
