<svg xmlns="http://www.w3.org/2000/svg" xmlns:xlink="http://www.w3.org/1999/xlink" width="1080" height="1080" viewBox="0 0 1080 1080">
  <defs>
    <clipPath id="clip-nextjs">
      <rect width="1080" height="1080"/>
    </clipPath>
  </defs>
  <g id="nextjs" clip-path="url(#clip-nextjs)">
    <circle id="Ellipse_1" data-name="Ellipse 1" cx="540" cy="540" r="540" fill="#fff"/>
    <path id="nextjs-2" d="M183.387,122.29H329.975v11.652H196.824v87.689H322.036v11.65H196.824v96.275H331.5v11.651H183.387Zm159.722,0h15.574L427.7,218.565l70.545-96.276L594.2,0,436.557,228.684l81.235,112.523H501.606L427.7,238.8,353.49,341.207h-15.88l81.845-112.525Zm180.485,11.652V122.288H690.645V133.94h-76.96V341.206H600.247V133.942ZM0,122.288H16.8L248.41,468.878,152.7,341.206,14.047,138.847l-.61,202.362H0ZM689.29,326.038a4.876,4.876,0,1,1,4.8-4.876A4.747,4.747,0,0,1,689.29,326.038Zm13.2-12.827h7.191c.1,3.894,2.94,6.512,7.124,6.512,4.674,0,7.321-2.814,7.321-8.083v-33.38h7.321v33.412c0,9.49-5.491,14.957-14.577,14.957-8.531,0-14.38-5.3-14.38-13.419Zm38.532-.425h7.256c.621,4.483,5,7.329,11.309,7.329,5.882,0,10.2-3.044,10.2-7.232,0-3.6-2.746-5.759-8.988-7.232l-6.08-1.472c-8.531-2-12.419-6.12-12.419-13.058,0-8.41,6.863-14.006,17.158-14.006,9.576,0,16.57,5.6,17,13.548h-7.125c-.686-4.352-4.478-7.069-9.969-7.069-5.783,0-9.639,2.782-9.639,7.036,0,3.37,2.482,5.3,8.627,6.741l5.2,1.277c9.674,2.259,13.662,6.186,13.662,13.287,0,9.032-6.993,14.694-18.17,14.694-10.459,0-17.487-5.4-18.009-13.844Z" transform="translate(151.385 306.049)"/>
  </g>
</svg>
