<svg xmlns="http://www.w3.org/2000/svg" xmlns:xlink="http://www.w3.org/1999/xlink" width="100" height="100" viewBox="0 0 100 100">
  <defs>
    <clipPath id="clip-icon">
      <rect width="100" height="100"/>
    </clipPath>
  </defs>
  <g id="icon" clip-path="url(#clip-icon)">
    <path id="Path_1" data-name="Path 1" d="M28.239,12.867c11.719,0,15.935-6.788,15.935-13.791,0-12.291-11.5-18.079-11.5-20.58,0-2.215,8.146-6.788,8.146-14.649,0-4.573-1.929-10.433-14.577-10.433H7.731c-1.215,0-4.931-1.286-4.931,34.013,0,26.8,2.144,25.439,3.93,25.439Zm-6.86-27.725a7.831,7.831,0,0,1,3-1.215c1.929,0,8.218,7.146,8.218,12.219,0,5.574-5.216,7.574-10.361,7.574-5.859,0-8.575-1.358-8.575-12.219,0-2.358,1.143-2.787,3.073-3.859Zm-2.43-7.36a9.356,9.356,0,0,1-3.859,1.572c-2,0-1.858-1.858-1.858-3.287,0-11.147,3.216-14.22,10.29-14.22,2.715,0,5.717.857,5.717,4.287,0,2.93-3,6.431-5.073,7.932Zm61.1-24.367c-1.644.071-1.572.357-2.072,1.929-3.43,12-14.006,24.3-15.578,24.3-1.429,0-1.215-3.716-1.215-4.5,0-10.29,3.5-20.508,3.5-20.58,0-1.358-1.5-1.143-2.43-1.143H55.035c-1.215,0-4.931-1.286-4.931,34.013,0,26.8,2.144,25.439,3.93,25.439h8.718c.786,0,1.358-.357,1.358-1.215,0-.572-2.43-13.291-2.43-16.149,0-4.073,6.145-9.361,7.86-9.361,1.215,0,7.5,7.646,7.86,23.867,0,.786-.214,2.858,1.572,2.858h8.718c1.572,0,3.073.429,3.073-1.5,0-20.937-13.72-32.3-13.72-33.871,0-1.429,12.148-12.576,12.148-23.223,0-1.143-1.572-.857-2.287-.857Z" transform="translate(3.218 66.855)"/>
  </g>
</svg>
