<svg xmlns="http://www.w3.org/2000/svg" xmlns:xlink="http://www.w3.org/1999/xlink" width="80" height="57" viewBox="0 0 80 57">
  <defs>
    <clipPath id="clip-logo">
      <rect width="80" height="57"/>
    </clipPath>
  </defs>
  <g id="logo" clip-path="url(#clip-logo)">
    <path id="Path_1" data-name="Path 1" d="M22.736,0C31.92,0,35.224-5.32,35.224-10.808c0-9.632-9.016-14.168-9.016-16.128,0-1.736,6.384-5.32,6.384-11.48,0-3.584-1.512-8.176-11.424-8.176H6.664C5.712-46.592,2.8-47.6,2.8-19.936,2.8,1.064,4.48,0,5.88,0ZM17.36-21.728a6.137,6.137,0,0,1,2.352-.952c1.512,0,6.44,5.6,6.44,9.576,0,4.368-4.088,5.936-8.12,5.936-4.592,0-6.72-1.064-6.72-9.576,0-1.848.9-2.184,2.408-3.024Zm-1.9-5.768a7.332,7.332,0,0,1-3.024,1.232c-1.568,0-1.456-1.456-1.456-2.576,0-8.736,2.52-11.144,8.064-11.144,2.128,0,4.48.672,4.48,3.36,0,2.3-2.352,5.04-3.976,6.216Zm47.88-19.1c-1.288.056-1.232.28-1.624,1.512C59.024-35.672,50.736-26.04,49.5-26.04c-1.12,0-.952-2.912-.952-3.528A58.048,58.048,0,0,1,51.3-45.7c0-1.064-1.176-.9-1.9-.9H43.736c-.952,0-3.864-1.008-3.864,26.656,0,21,1.68,19.936,3.08,19.936h6.832c.616,0,1.064-.28,1.064-.952,0-.448-1.9-10.416-1.9-12.656,0-3.192,4.816-7.336,6.16-7.336.952,0,5.88,5.992,6.16,18.7C61.264-1.624,61.1,0,62.5,0h6.832c1.232,0,2.408.336,2.408-1.176,0-16.408-10.752-25.312-10.752-26.544,0-1.12,9.52-9.856,9.52-18.2,0-.9-1.232-.672-1.792-.672Z" transform="translate(3.2 51.617)"/>
  </g>
</svg>
